<?xml version="1.0" encoding="UTF-8" standalone="no"?>
<!DOCTYPE svg PUBLIC "-//W3C//DTD SVG 1.1//EN" "http://www.w3.org/Graphics/SVG/1.1/DTD/svg11.dtd">
<svg version="1.1" xmlns="http://www.w3.org/2000/svg" xmlns:xlink="http://www.w3.org/1999/xlink" preserveAspectRatio="xMidYMid meet" viewBox="0 0 640 640" width="640" height="640"><defs><path d="M252.84 180.35C366.19 406.51 437.03 547.86 465.37 604.4C475.69 625 496.76 638 519.8 638C545.1 638 587.69 638 614.06 638C628.88 638 638.52 622.4 631.89 609.15C482.63 310.68 386.75 119.32 344.25 35.05C333.78 14.29 302.23 19.51 295.4 33.04C270.45 82.46 478.05 607.59 474.62 614.38C464.61 634.24 242.82 160.48 252.84 180.35" id="b2IvVoFwPv"></path><path d="M383.04 180.35C272.51 400.88 203.43 538.72 175.79 593.85C162.23 620.91 134.55 638 104.28 638C81.33 638 66.76 638 45.04 638C19.55 638 2.97 611.18 14.37 588.38C158.25 300.71 250.67 116.27 291.63 35.05C302.1 14.29 333.65 19.51 340.48 33.04C365.43 82.46 379.62 110.56 383.04 117.35C393.05 137.21 393.05 160.48 383.04 180.35" id="a11IYF2FF6"></path><path d="M354.61 568.23C367.28 542.7 375.19 526.74 378.36 520.35C384.23 508.52 375.62 494.64 362.42 494.64C356.51 494.64 341.73 494.64 318.09 494.64C290.43 494.64 273.14 494.64 266.23 494.64C256.49 494.64 250.15 504.87 254.47 513.6C258.09 520.88 267.12 539.09 281.58 568.23C294.37 594.01 302.36 610.12 305.56 616.56C310.7 626.93 325.49 626.93 330.63 616.56C333.82 610.12 341.82 594.01 354.61 568.23Z" id="b5tn6XhVXo"></path><path d="M352.69 566.42C366.01 540.15 374.34 523.74 377.67 517.17C383.78 505.14 375.04 490.91 361.55 490.91C355.26 490.91 339.53 490.91 314.37 490.91L281.22 490.91C268.81 490.91 261.06 490.91 257.96 490.91C257.59 490.91 257.22 490.92 256.86 490.95C254.54 491.15 252.45 491.94 250.71 493.15C249.2 494.2 247.96 495.56 247.05 497.12C246.12 498.73 245.55 500.54 245.43 502.42C245.3 504.46 245.7 506.58 246.73 508.61C250.64 516.32 260.41 535.59 276.06 566.42C289.51 592.93 297.92 609.5 301.28 616.12C306.72 626.84 322.03 626.84 327.46 616.12C330.83 609.5 339.23 592.93 352.69 566.42Z" id="f4OzOd8uez"></path><path d="M253.15 552.04C271.57 584.48 308.96 629.08 304.85 623.51C300.61 617.78 274.26 580.95 258.01 552.04C250.45 538.59 245.83 529.36 244.14 524.34C241.44 516.32 242.51 507.51 247.07 500.38C252.14 492.43 252.81 490.62 249.08 494.94C242.61 502.41 234.73 519.6 253.15 552.04Z" id="a15Ow9sxkn"></path></defs><g><g><g><use xlink:href="#b2IvVoFwPv" opacity="1" fill="#000000" fill-opacity="1"></use><g><use xlink:href="#b2IvVoFwPv" opacity="1" fill-opacity="0" stroke="#000000" stroke-width="1" stroke-opacity="0"></use></g></g><g><use xlink:href="#a11IYF2FF6" opacity="1" fill="#000000" fill-opacity="1"></use><g><use xlink:href="#a11IYF2FF6" opacity="1" fill-opacity="0" stroke="#000000" stroke-width="1" stroke-opacity="0"></use></g></g><g><use xlink:href="#b5tn6XhVXo" opacity="1" fill="#000000" fill-opacity="1"></use></g><g><use xlink:href="#f4OzOd8uez" opacity="1" fill="#000000" fill-opacity="1"></use></g><g><use xlink:href="#a15Ow9sxkn" opacity="1" fill="#000000" fill-opacity="1"></use></g></g></g></svg>