<svg version="1.1" viewBox="0 0 640 640" width="640" height="640">
    <path d="M258.27 191.96L476.86 638L633.25 638L320.67 4.15C283.23 80 262.43 122.13 258.27 130.56C248.73 149.92 248.73 172.6 258.27 191.96" id="a1XvVV8kc4"></path>
    <path d="M302.46 627.91C307.6 637.31 319.38 640.76 328.77 635.62C332.26 633.71 335.08 630.77 336.85 627.2C340.69 619.44 359.91 580.6 394.49 510.7L239.41 510.7C273.04 573.21 294.06 612.28 302.46 627.91Z" id="b2PuCPip0V"></path>
    <path d="M382.98 191.96L164.39 638L8 638L320.58 4.15C358.02 80 378.82 122.13 382.98 130.56C392.52 149.92 392.52 172.6 382.98 191.96" id="a2UPKtHRjS"></path>
</svg>