<?xml version="1.0" encoding="UTF-8" standalone="no"?>
<!DOCTYPE svg PUBLIC "-//W3C//DTD SVG 1.1//EN" "http://www.w3.org/Graphics/SVG/1.1/DTD/svg11.dtd">
<svg style="border-radius: 6px;" version="1.1"
    xmlns="http://www.w3.org/2000/svg"
    xmlns:xlink="http://www.w3.org/1999/xlink" preserveAspectRatio="xMidYMid meet" viewBox="0 0 640 640" width="640" height="640">
    <defs>
        <path d="M618.06 0C630.18 0 640 9.82 640 21.94C640 145.55 640 494.45 640 618.06C640 630.18 630.18 640 618.06 640C494.45 640 145.55 640 21.94 640C9.82 640 0 630.18 0 618.06C0 494.45 0 145.55 0 21.94C0 9.82 9.82 0 21.94 0C145.55 0 494.45 0 618.06 0Z" id="d2VUxd8xj"></path>
        <path d="M379.73 185.6C280.18 384.22 217.97 508.36 193.07 558.01C180.86 582.38 155.93 597.78 128.67 597.78C108 597.78 94.88 597.78 75.31 597.78C52.36 597.78 37.43 573.62 47.69 553.09C177.28 294 260.51 127.89 297.4 54.74C306.83 36.04 335.25 40.74 341.4 52.93C363.87 97.44 376.65 122.74 379.73 128.86C388.75 146.75 388.75 167.7 379.73 185.6" id="dCth9md0d"></path>
        <path d="M379.73 185.6C280.18 384.22 217.97 508.36 193.07 558.01C180.86 582.38 155.93 597.78 128.67 597.78C108 597.78 94.88 597.78 75.31 597.78C52.36 597.78 37.43 573.62 47.69 553.09C177.28 294 260.51 127.89 297.4 54.74C306.83 36.04 335.25 40.74 341.4 52.93C363.87 97.44 376.65 122.74 379.73 128.86C388.75 146.75 388.75 167.7 379.73 185.6" id="a7ZsmyWRE"></path>
        <path d="M260.27 185.6C359.82 384.22 422.03 508.36 446.93 558.01C459.14 582.38 484.07 597.78 511.33 597.78C532 597.78 545.12 597.78 564.69 597.78C587.64 597.78 602.57 573.62 592.31 553.09C462.72 294 379.49 127.89 342.6 54.74C333.17 36.04 304.75 40.74 298.6 52.93C276.13 97.44 263.35 122.74 260.27 128.86C251.25 146.75 251.25 167.7 260.27 185.6" id="a1EKEhv0yM"></path>
        <path d="M260.27 185.6C359.82 384.22 422.03 508.36 446.93 558.01C459.14 582.38 484.07 597.78 511.33 597.78C532 597.78 545.12 597.78 564.69 597.78C587.64 597.78 602.57 573.62 592.31 553.09C462.72 294 379.49 127.89 342.6 54.74C333.17 36.04 304.75 40.74 298.6 52.93C276.13 97.44 263.35 122.74 260.27 128.86C251.25 146.75 251.25 167.7 260.27 185.6" id="b5aDLwBkul"></path>
        <path d="M337.45 398.62L344.16 411.99L350.99 425.62L357.96 439.54L365.08 453.74L372.34 468.21L379.73 482.97L380.39 484.32L381.02 485.68L381.6 487.05L382.16 488.42L382.69 489.82L383.18 491.22L383.64 492.62L384.06 494.03L384.45 495.45L384.8 496.87L385.13 498.3L385.41 499.74L385.67 501.19L385.88 502.63L386.07 504.08L386.22 505.53L386.34 506.98L386.42 508.44L386.48 509.89L386.49 511.34L386.48 512.8L386.42 514.26L386.34 515.71L386.22 517.17L386.07 518.62L385.88 520.06L385.67 521.51L385.41 522.95L385.13 524.39L384.8 525.82L384.45 527.24L384.06 528.66L383.64 530.08L383.18 531.47L382.69 532.87L382.16 534.26L381.6 535.64L381.02 537L380.39 538.36L379.73 539.71L379.48 540.21L379.2 540.78L378.87 541.42L378.51 542.12L378.12 542.9L377.69 543.76L377.23 544.69L376.72 545.69L376.18 546.76L375.61 547.9L374.99 549.11L374.34 550.4L373.65 551.76L372.93 553.19L372.17 554.69L371.38 556.27L370.55 557.91L369.68 559.63L368.78 561.42L367.83 563.28L366.86 565.21L365.85 567.22L364.8 569.3L363.72 571.45L362.59 573.67L361.43 575.97L360.24 578.33L359.01 580.77L357.74 583.28L356.44 585.86L355.1 588.52L353.72 591.24L352.31 594.04L350.86 596.91L349.37 599.86L347.85 602.87L346.29 605.96L344.7 609.12L343.07 612.34L341.4 615.65L340.89 616.55L340.32 617.41L339.66 618.25L338.93 619.06L338.13 619.84L337.27 620.57L336.35 621.27L335.36 621.93L334.34 622.55L333.26 623.13L332.13 623.67L330.97 624.16L329.76 624.61L328.53 625L327.26 625.36L325.97 625.65L324.66 625.91L323.33 626.1L321.98 626.24L320.63 626.32L320 626.34L319.37 626.32L318.02 626.24L316.67 626.1L315.34 625.91L314.03 625.65L312.74 625.36L311.47 625L310.24 624.61L309.03 624.16L307.87 623.67L306.74 623.13L305.66 622.55L304.64 621.93L303.65 621.27L302.73 620.57L301.87 619.84L301.07 619.06L300.34 618.25L299.68 617.41L299.11 616.55L298.6 615.65L296.93 612.34L295.3 609.12L293.71 605.96L292.15 602.87L290.63 599.86L289.14 596.91L287.69 594.04L286.28 591.24L284.9 588.52L283.56 585.86L282.26 583.28L280.99 580.77L279.76 578.33L278.57 575.97L277.41 573.67L276.28 571.45L275.2 569.3L274.15 567.22L273.14 565.21L272.17 563.28L271.22 561.42L270.32 559.63L269.45 557.91L268.62 556.27L267.83 554.69L267.07 553.19L266.35 551.76L265.66 550.4L265.01 549.11L264.39 547.9L263.82 546.76L263.28 545.69L262.77 544.69L262.31 543.76L261.88 542.9L261.49 542.12L261.13 541.42L260.8 540.78L260.52 540.21L260.27 539.71L259.61 538.36L258.98 537L258.4 535.64L257.84 534.26L257.31 532.87L256.82 531.47L256.36 530.08L255.94 528.66L255.55 527.24L255.2 525.82L254.87 524.39L254.59 522.95L254.33 521.51L254.12 520.06L253.93 518.62L253.78 517.17L253.66 515.71L253.58 514.26L253.52 512.8L253.51 511.34L253.52 509.89L253.58 508.44L253.66 506.98L253.78 505.53L253.93 504.08L254.12 502.63L254.33 501.19L254.59 499.74L254.87 498.3L255.2 496.87L255.55 495.45L255.94 494.03L256.36 492.62L256.82 491.22L257.31 489.82L257.84 488.42L258.4 487.05L258.98 485.68L259.61 484.32L260.27 482.97L267.66 468.21L274.92 453.74L282.04 439.54L289.01 425.62L295.84 411.99L302.55 398.62L309.1 385.54L315.51 372.74L320 363.79L324.49 372.74L330.9 385.54L337.45 398.62Z" id="aIT7AmkJe"></path>
    </defs>
    <g>
        <g>
            <g>
                <use xlink:href="#d2VUxd8xj" opacity="1" fill="#000000" fill-opacity="1"></use>
            </g>
            <g>
                <use xlink:href="#dCth9md0d" opacity="1" fill="#ffffff" fill-opacity="1"></use>
                <g>
                    <use xlink:href="#dCth9md0d" opacity="1" fill-opacity="0" stroke="#000000" stroke-width="1" stroke-opacity="0"></use>
                </g>
            </g>
            <g>
                <use xlink:href="#a7ZsmyWRE" opacity="1" fill="#000000" fill-opacity="0"></use>
                <g>
                    <use xlink:href="#a7ZsmyWRE" opacity="1" fill-opacity="0" stroke="#000000" stroke-width="1" stroke-opacity="0"></use>
                </g>
            </g>
            <g>
                <use xlink:href="#a1EKEhv0yM" opacity="1" fill="#ffffff" fill-opacity="1"></use>
                <g>
                    <use xlink:href="#a1EKEhv0yM" opacity="1" fill-opacity="0" stroke="#000000" stroke-width="1" stroke-opacity="0"></use>
                </g>
            </g>
            <g>
                <use xlink:href="#b5aDLwBkul" opacity="1" fill="#000000" fill-opacity="0"></use>
                <g>
                    <use xlink:href="#b5aDLwBkul" opacity="1" fill-opacity="0" stroke="#000000" stroke-width="1" stroke-opacity="0"></use>
                </g>
            </g>
            <g>
                <use xlink:href="#aIT7AmkJe" opacity="1" fill="#ffffff" fill-opacity="1"></use>
                <g>
                    <use xlink:href="#aIT7AmkJe" opacity="1" fill-opacity="0" stroke="#000000" stroke-width="1" stroke-opacity="0"></use>
                </g>
            </g>
        </g>
    </g>
</svg>